# xmcd
#
# Track frame offsets: 
#        150
#        23560
#        43801
#        61297
#        81109
#        98205
#        112963
#        132548
#        152744
#        167619
#        184310
#        203395
#        219474
#        239507
#        252845
#        266481
#        272055
#        280104
#
# Disc length: 3836 seconds
#
# Revision: 0
# Processed by: cddbd v1.5.2PL0 Copyright (c) Steve Scherf et al.
# Submitted via: ExactAudioCopy v0.95b4
#
DISCID=fa0efa12
DTITLE=Various Artist - Charlie Erwin - Favorite Tunes
DYEAR=2001
DGENRE=Country
TTITLE0=Willis' Point - The Timewarp Tophands
TTITLE1=Misery - Charlie Erwin and The Timewarp Tophands
TTITLE2=Sugar Moon - Charlie Erwin and The Timewarp Tophands
TTITLE3=Tomorrow Night - Charlie Erwin and The Timewarp Tophands
TTITLE4=Cab Driver - The Country Gentlemen
TTITLE5=Red Wagon - The Country Gentlemen
TTITLE6=Tears Are Only Rain - The Country Gentlemen
TTITLE7=Blue Bonnet Lane - The Country Gentlemen
TTITLE8=Someone Had to Teach You - The Country Gentlemen
TTITLE9=San Antonio Rose - The Country Gentlemen
TTITLE10=Faded Love - The Country Gentlemen
TTITLE11=Remember Me - The Country Gentlemen
TTITLE12=I'll Keep on Loving You - The Country Gentlemen
TTITLE13=Evergreen Tree - Charlie Erwin
TTITLE14=Truer Love - Composed by Charlie Erwin
TTITLE15=Regretting - Composed by Charlie Erwin
TTITLE16=I Don't Believe in Fairy Tales - Composed by Charlie Erwin
TTITLE17=Strong Coffee - Written by Bob Steagall
EXTD=
EXTT0=
EXTT1=
EXTT2=
EXTT3=
EXTT4=
EXTT5=
EXTT6=
EXTT7=
EXTT8=
EXTT9=
EXTT10=
EXTT11=
EXTT12=
EXTT13=
EXTT14=
EXTT15=
EXTT16=
EXTT17=
PLAYORDER=
